# Blender v2.81 (sub 16) OBJ File: 'Player.blend'
# www.blender.org
mtllib Player.mtl
o Icosphere
v 0.435787 0.597502 0.579860
v -0.446900 0.597502 0.549041
v -0.690355 0.597506 -0.299973
v 0.041878 0.597502 -0.793865
v 0.737866 0.597502 -0.250094
v -0.010571 1.402498 0.707851
v -0.706559 1.402498 0.164080
v -0.404481 1.402498 -0.665874
v 0.478207 1.402498 -0.635055
v 0.721661 1.402494 0.213959
v 0.015653 1.900000 -0.043007
v -0.256227 0.332140 0.304987
v 0.262600 0.332140 0.323103
v -0.009280 0.526836 0.671101
v 0.687105 0.526838 0.201382
v 0.440156 0.332140 -0.164729
v -0.399327 0.332143 -0.194047
v -0.671211 0.526837 0.153947
v 0.031067 0.332140 -0.484347
v -0.383916 0.526837 -0.635390
v 0.455573 0.526836 -0.606072
v 0.677585 1.000000 0.474146
v 0.855141 1.000000 -0.013688
v -0.271644 1.000000 0.746335
v 0.247189 1.000000 0.764453
v -0.823835 1.000000 -0.072326
v -0.680738 1.000000 0.426715
v -0.215883 1.000000 -0.850467
v -0.646278 1.000000 -0.560160
v 0.712045 1.000000 -0.512729
v 0.302950 1.000000 -0.832349
v 0.415222 1.473163 0.549376
v -0.424267 1.473164 0.520058
v -0.655799 1.473162 -0.287395
v 0.040586 1.473164 -0.757115
v 0.702517 1.473163 -0.239961
v 0.000239 1.765589 0.398333
v 0.430634 1.765587 0.108034
v -0.408850 1.765589 0.078715
v -0.231294 1.765589 -0.409116
v 0.287533 1.765589 -0.391001
v 0.440155 0.237725 -0.164729
v 0.031066 0.237725 -0.484348
v -0.399328 0.237727 -0.194048
v -0.256228 0.237725 0.304987
v 0.262599 0.237725 0.323102
v 0.617435 0.010687 -0.177044
v 0.022418 0.010686 -0.641927
v -0.603588 0.010689 -0.219688
v -0.343748 0.010686 0.364106
v 0.410882 0.010687 0.390455
v 0.617434 -0.358017 -0.177044
v 0.022417 -0.358017 -0.641927
v -0.603588 -0.358015 -0.219688
v -0.343749 -0.358017 0.364106
v 0.410881 -0.358017 0.390455
v 0.657408 -0.524682 -0.188506
v 0.023869 -0.524682 -0.683486
v -0.642666 -0.524680 -0.233911
v -0.369351 -0.524682 0.396875
v 0.434135 -0.524682 0.424930
v 0.657408 -0.730074 -0.188506
v 0.023868 -0.730074 -0.683486
v -0.642666 -0.730072 -0.233911
v -0.369351 -0.730074 0.396875
v 0.434135 -0.730074 0.424930
v 0.439176 -0.971458 -0.125931
v 0.015944 -0.971459 -0.456599
v -0.429330 -0.971456 -0.156263
v -0.229581 -0.971459 0.217976
v 0.307183 -0.971458 0.236718
v -0.206693 -0.971457 -0.306431
v -0.355306 -0.971457 0.101880
v 0.227560 -0.971458 -0.291265
v 0.347329 -0.971458 0.126417
v 0.439176 -1.489909 -0.125931
v 0.227560 -1.489909 -0.291265
v 0.347329 -1.489909 0.126417
v -0.206693 -1.489908 -0.306431
v -0.429330 -1.489907 -0.156263
v -0.355306 -1.489908 0.101880
v 0.127329 -1.489909 -0.088016
v -0.120884 -1.489908 -0.096684
v -0.126193 -1.128734 -0.082096
v 0.122019 -1.128735 -0.073428
vt 0.727272 0.157461
vt 0.681818 0.078731
vt 0.636363 0.157461
vt 0.681818 0.236191
vt 0.909090 0.157461
vt 0.818181 0.157461
vt 0.863635 0.236191
vt 0.181818 0.157461
vt 0.090909 0.157461
vt 0.136363 0.236191
vt 0.363636 0.157461
vt 0.272727 0.157461
vt 0.318182 0.236191
vt 0.545454 0.157461
vt 0.454545 0.157461
vt 0.500000 0.236191
vt 0.772726 0.236191
vt 0.954545 0.236191
vt 0.227273 0.236191
vt 0.409090 0.236191
vt 0.590909 0.236191
vt 0.818181 0.314921
vt 0.727272 0.314921
vt 0.772726 0.393651
vt 1.000000 0.314921
vt 0.909091 0.314921
vt 0.954545 0.393651
vt 0.272727 0.314921
vt 0.181818 0.314921
vt 0.227273 0.393651
vt 0.454545 0.314921
vt 0.363636 0.314921
vt 0.409090 0.393651
vt 0.636363 0.314921
vt 0.545454 0.314921
vt 0.590909 0.393651
vt 0.500000 0.393651
vt 0.545454 0.472382
vt 0.318182 0.393651
vt 0.363636 0.472382
vt 0.136363 0.393651
vt 0.181818 0.472382
vt 0.090909 0.314921
vt 0.863635 0.393651
vt 0.909090 0.472382
vt 0.681818 0.393651
vt 0.727272 0.472382
vt 0.045454 0.236191
vt 0.000000 0.157461
vt 0.500000 0.078731
vt 0.409090 0.078731
vt 0.318182 0.078731
vt 0.227273 0.078731
vt 0.136363 0.078731
vt 0.045454 0.078731
vt 0.590909 0.078731
vt 0.318182 0.078731
vt 0.227273 0.078731
vt 0.863635 0.078731
vt 0.772726 0.078731
vt 0.409090 0.078731
vt 0.500000 0.078731
vt 0.500000 0.078731
vt 0.409090 0.078731
vt 0.863635 0.078731
vt 0.772726 0.078731
vt 0.681818 0.078731
vt 0.590909 0.078731
vt 0.136363 0.078731
vt 0.045454 0.078731
vt 0.227273 0.078731
vt 0.318182 0.078731
vt 0.318182 0.078731
vt 0.227273 0.078731
vt 0.681818 0.078731
vt 0.590909 0.078731
vt 0.863635 0.078731
vt 0.772726 0.078731
vt 0.136363 0.078731
vt 0.045454 0.078731
vt 0.045454 0.078731
vt 0.136363 0.078731
vt 0.136363 0.078731
vt 0.045454 0.078731
vt 0.863635 0.078731
vt 0.772726 0.078731
vt 0.500000 0.078731
vt 0.409090 0.078731
vt 0.681818 0.078731
vt 0.590909 0.078731
vt 0.590909 0.078731
vt 0.681818 0.078731
vt 0.681818 0.078731
vt 0.590909 0.078731
vt 0.500000 0.078731
vt 0.409090 0.078731
vt 0.318182 0.078731
vt 0.227273 0.078731
vt 0.863635 0.078731
vt 0.772726 0.078731
vt 0.772726 0.078731
vt 0.863635 0.078731
vt 0.863635 0.078731
vt 0.772726 0.078731
vt 0.318182 0.078731
vt 0.227273 0.078731
vt 0.136363 0.078731
vt 0.045454 0.078731
vt 0.500000 0.078731
vt 0.409090 0.078731
vt 0.136363 0.078731
vt 0.090909 0.078731
vt 0.045454 0.078731
vt 0.500000 0.078731
vt 0.454545 0.078731
vt 0.409090 0.078731
vt 0.681818 0.078731
vt 0.636363 0.078731
vt 0.590909 0.078731
vt 0.318182 0.078731
vt 0.272727 0.078731
vt 0.227273 0.078731
vt 0.454545 0.078731
vt 0.590909 0.078731
vt 0.636363 0.078731
vt 0.545454 0.078731
vt 0.500000 0.078731
vt 0.136363 0.078731
vt 0.272727 0.078731
vt 0.181818 0.078731
vt 0.090909 0.078731
vt 0.227273 0.078731
vt 0.000000 0.000000
vt 0.000000 0.000000
vn 0.4757 -0.7520 0.4563
vn 0.7641 -0.3106 0.5654
vn -0.3016 -0.3106 0.9014
vn -0.9505 -0.3106 -0.0083
vn -0.2859 -0.3106 -0.9066
vn 0.7738 -0.3106 -0.5520
vn 0.5553 -0.1174 0.8233
vn -0.6114 -0.1174 0.7826
vn -0.9332 -0.1174 -0.3397
vn 0.0347 -0.1174 -0.9925
vn 0.9546 -0.1174 -0.2737
vn 0.1743 0.6358 0.7519
vn -0.6612 0.6358 0.3982
vn -0.5830 0.6358 -0.5058
vn 0.3009 0.6358 -0.7108
vn 0.7690 0.6358 0.0665
vn 0.3385 0.9360 -0.0971
vn 0.6088 0.7738 -0.1746
vn 0.6169 0.6358 -0.4639
vn 0.0123 0.9360 -0.3519
vn 0.0221 0.7738 -0.6330
vn -0.2506 0.6358 -0.7300
vn -0.3309 0.9360 -0.1204
vn -0.5952 0.7738 -0.2166
vn -0.7718 0.6358 0.0127
vn -0.2168 0.9360 0.2775
vn -0.3900 0.7738 0.4991
vn -0.2264 0.6358 0.7379
vn 0.1969 0.9360 0.2919
vn 0.3542 0.7738 0.5251
vn 0.6319 0.6358 0.4433
vn 0.9505 0.3106 0.0083
vn 0.9463 0.1755 -0.2714
vn 0.8017 0.3106 -0.5107
vn 0.3016 0.3106 -0.9014
vn 0.0344 0.1755 -0.9839
vn -0.2380 0.3106 -0.9203
vn -0.7641 0.3106 -0.5654
vn -0.9251 0.1755 -0.3367
vn -0.9488 0.3106 -0.0581
vn -0.7738 0.3106 0.5520
vn -0.6061 0.1755 0.7758
vn -0.3484 0.3106 0.8844
vn 0.2859 0.3106 0.9066
vn 0.5505 0.1755 0.8162
vn 0.7335 0.3106 0.6047
vn 0.6114 0.1174 -0.7826
vn 0.6061 -0.1755 -0.7758
vn 0.3484 -0.3106 -0.8844
vn -0.5553 0.1174 -0.8233
vn -0.5505 -0.1755 -0.8162
vn -0.7335 -0.3106 -0.6047
vn -0.9546 0.1174 0.2737
vn -0.9463 -0.1755 0.2714
vn -0.8017 -0.3106 0.5107
vn -0.0347 0.1174 0.9925
vn -0.0344 -0.1755 0.9839
vn 0.2380 -0.3106 0.9203
vn 0.9332 0.1174 0.3397
vn 0.9251 -0.1755 0.3367
vn 0.9488 -0.3106 0.0581
vn 0.5810 -0.7520 -0.3114
vn 0.2946 -0.8781 -0.3771
vn 0.1616 -0.7520 -0.6391
vn -0.1167 -0.7520 -0.6488
vn -0.2676 -0.8781 -0.3967
vn -0.5578 -0.7520 -0.3512
vn -0.6531 -0.7520 -0.0895
vn -0.4600 -0.8781 0.1319
vn -0.5064 -0.7520 0.4220
vn 0.6577 -0.7520 -0.0437
vn 0.4497 -0.8781 0.1637
vn -0.5592 0.0000 -0.8290
vn -0.2870 -0.7520 0.5934
vn -0.0167 -0.8781 0.4782
vn 0.2449 -0.7520 0.6120
vn 0.5455 0.4638 -0.6981
vn -0.0349 -0.0000 0.9994
vn 0.9397 -0.0000 0.3420
vn -0.9613 0.0000 0.2756
vn 0.6157 -0.0000 -0.7880
vn 0.7643 0.5817 0.2782
vn -0.4802 0.5124 -0.7119
vn -0.0337 0.2640 0.9639
vn -0.7937 0.5318 0.2954
vn -0.8979 0.1962 0.3941
vn -0.9136 0.0000 0.4066
vn 0.6035 0.1979 -0.7724
vn 0.9211 0.1979 0.3353
vn -0.5481 0.1979 -0.8127
vn -0.0342 0.1979 0.9796
vn -0.0278 -0.6055 0.7953
vn -0.9176 0.0000 0.3976
vn -0.7544 -0.5521 0.3551
vn 0.4900 -0.6055 -0.6271
vn 0.7478 -0.6055 0.2722
vn -0.4450 -0.6055 -0.6598
vn 0.0000 -1.0000 -0.0000
vn 0.6347 -0.0090 0.7727
vn -0.6780 -0.0163 0.7349
vn -0.8987 0.0018 -0.4385
vn 0.9351 0.0115 -0.3541
vn -0.3229 -0.8795 0.3497
vn 0.4601 -0.8719 0.1675
vn 0.0153 -0.8985 -0.4388
vn -0.0161 -0.8879 0.4598
usemtl None
s off
f 1/1/1 13/2/1 15/3/1
f 1/1/2 15/3/2 22/4/2
f 2/5/3 14/6/3 24/7/3
f 3/8/4 18/9/4 26/10/4
f 4/11/5 20/12/5 28/13/5
f 5/14/6 21/15/6 30/16/6
f 1/1/7 22/4/7 25/17/7
f 2/5/8 24/7/8 27/18/8
f 3/8/9 26/10/9 29/19/9
f 4/11/10 28/13/10 31/20/10
f 5/14/11 30/16/11 23/21/11
f 6/22/12 32/23/12 37/24/12
f 7/25/13 33/26/13 39/27/13
f 8/28/14 34/29/14 40/30/14
f 9/31/15 35/32/15 41/33/15
f 10/34/16 36/35/16 38/36/16
f 38/36/17 41/37/17 11/38/17
f 38/36/18 36/35/18 41/37/18
f 36/35/19 9/31/19 41/37/19
f 41/33/20 40/39/20 11/40/20
f 41/33/21 35/32/21 40/39/21
f 35/32/22 8/28/22 40/39/22
f 40/30/23 39/41/23 11/42/23
f 40/30/24 34/29/24 39/41/24
f 34/29/25 7/43/25 39/41/25
f 39/27/26 37/44/26 11/45/26
f 39/27/27 33/26/27 37/44/27
f 33/26/28 6/22/28 37/44/28
f 37/24/29 38/46/29 11/47/29
f 37/24/30 32/23/30 38/46/30
f 32/23/31 10/34/31 38/46/31
f 23/21/32 36/35/32 10/34/32
f 23/21/33 30/16/33 36/35/33
f 30/16/34 9/31/34 36/35/34
f 31/20/35 35/32/35 9/31/35
f 31/20/36 28/13/36 35/32/36
f 28/13/37 8/28/37 35/32/37
f 29/19/38 34/29/38 8/28/38
f 29/19/39 26/10/39 34/29/39
f 26/10/40 7/43/40 34/29/40
f 27/18/41 33/26/41 7/25/41
f 27/18/42 24/7/42 33/26/42
f 24/7/43 6/22/43 33/26/43
f 25/17/44 32/23/44 6/22/44
f 25/17/45 22/4/45 32/23/45
f 22/4/46 10/34/46 32/23/46
f 30/16/47 31/20/47 9/31/47
f 30/16/48 21/15/48 31/20/48
f 21/15/49 4/11/49 31/20/49
f 28/13/50 29/19/50 8/28/50
f 28/13/51 20/12/51 29/19/51
f 20/12/52 3/8/52 29/19/52
f 26/10/53 27/48/53 7/43/53
f 26/10/54 18/9/54 27/48/54
f 18/9/55 2/49/55 27/48/55
f 24/7/56 25/17/56 6/22/56
f 24/7/57 14/6/57 25/17/57
f 14/6/58 1/1/58 25/17/58
f 22/4/59 23/21/59 10/34/59
f 22/4/60 15/3/60 23/21/60
f 15/3/61 5/14/61 23/21/61
f 16/50/62 21/15/62 5/14/62
f 16/50/63 19/51/63 21/15/63
f 19/51/64 4/11/64 21/15/64
f 19/52/65 20/12/65 4/11/65
f 19/52/66 17/53/66 20/12/66
f 17/53/67 3/8/67 20/12/67
f 17/54/68 18/9/68 3/8/68
f 17/54/69 12/55/69 18/9/69
f 12/55/70 2/49/70 18/9/70
f 15/3/71 16/56/71 5/14/71
f 15/3/72 13/2/72 16/56/72
f 17/53/73 19/52/73 43/57/73 44/58/73
f 12/59/74 14/6/74 2/5/74
f 12/59/75 13/60/75 14/6/75
f 13/60/76 1/1/76 14/6/76
f 43/61/77 42/62/77 47/63/77 48/64/77
f 13/60/78 12/59/78 45/65/78 46/66/78
f 16/56/79 13/2/79 46/67/79 42/68/79
f 12/55/80 17/54/80 44/69/80 45/70/80
f 19/51/81 16/50/81 42/62/81 43/61/81
f 49/71/73 48/72/73 53/73/73 54/74/73
f 42/68/82 46/67/82 51/75/82 47/76/82
f 44/58/83 43/57/83 48/72/83 49/71/83
f 46/66/84 45/65/84 50/77/84 51/78/84
f 45/70/85 44/69/85 49/79/85 50/80/85
f 55/81/86 54/82/86 59/83/86 60/84/86
f 51/78/78 50/77/78 55/85/78 56/86/78
f 50/80/87 49/79/87 54/82/87 55/81/87
f 48/64/81 47/63/81 52/87/81 53/88/81
f 47/76/79 51/75/79 56/89/79 52/90/79
f 57/91/79 61/92/79 66/93/79 62/94/79
f 53/88/88 52/87/88 57/95/88 58/96/88
f 52/90/89 56/89/89 61/92/89 57/91/89
f 54/74/90 53/73/90 58/97/90 59/98/90
f 56/86/91 55/85/91 60/99/91 61/100/91
f 66/101/92 65/102/92 70/103/92 71/104/92
f 59/98/73 58/97/73 63/105/73 64/106/73
f 61/100/78 60/99/78 65/102/78 66/101/78
f 60/84/93 59/83/93 64/107/93 65/108/93
f 58/96/81 57/95/81 62/109/81 63/110/81
f 65/108/94 64/107/94 69/111/94 73/112/94 70/113/94
f 63/110/95 62/109/95 67/114/95 74/115/95 68/116/95
f 62/94/96 66/93/96 71/117/96 75/118/96 67/119/96
f 64/106/97 63/105/97 68/120/97 72/121/97 69/122/97
f 77/123/98 76/124/98 78/125/98 82/126/98
f 67/119/79 75/118/79 78/125/79 76/124/79
f 74/115/81 67/114/81 76/127/81 77/123/81
f 80/128/98 79/129/98 83/130/98 81/131/98
f 73/112/80 69/111/80 80/128/80 81/131/80
f 69/122/73 72/121/73 79/129/73 80/132/73
f 81/131/99 83/130/99 84/133/99 73/112/99
f 78/125/100 75/118/100 85/134/100 82/126/100
f 74/115/101 77/123/101 82/126/101 85/134/101
f 72/121/102 84/133/102 83/130/102 79/129/102
f 73/112/103 84/133/103 70/113/103
f 75/118/104 71/117/104 85/134/104
f 74/115/105 85/134/105 84/133/105 72/121/105 68/120/105
f 71/117/106 70/113/106 84/133/106 85/134/106
